<svg width="30" height="30" viewBox="0 0 30 30" fill="none" xmlns="http://www.w3.org/2000/svg">
<path d="M2.77457 12.9172C3.78556 6.98327 8.90854 2.673 14.9473 2.673C20.9861 2.673 26.109 6.97874 27.12 12.9172L27.1835 13.2926H29.8946L29.8175 12.7725C28.734 5.49073 22.3416 0 14.9473 0C7.55299 0 1.1606 5.49073 0.0770713 12.777L0 13.2972H2.7111L2.77457 12.9218V12.9172Z" fill="url(#paint0_linear_175_1099)"/>
<path d="M27.0702 17.3813C25.9368 23.1434 20.841 27.3225 14.9518 27.3225C9.06268 27.3225 3.96237 23.1434 2.8335 17.3813L2.76096 17.0149H0.040802L0.131474 17.5441C1.36915 24.7625 7.59832 30 14.9473 30C22.2963 30 28.5254 24.7625 29.7631 17.5441L29.8538 17.0149H27.1382L27.0656 17.3813H27.0702Z" fill="url(#paint1_linear_175_1099)"/>
<path fill-rule="evenodd" clip-rule="evenodd" d="M9.28478 20.7101C9.84188 21.2613 10.58 21.5688 11.368 21.5694C11.3672 21.5694 11.3665 21.5694 11.3657 21.5694H11.3702C11.3695 21.5694 11.3687 21.5694 11.368 21.5694C12.156 21.5688 12.8941 21.2659 13.4512 20.7101L14.945 19.2198L16.4388 20.7101C17.0146 21.2845 17.7717 21.5694 18.5243 21.5694V21.574C19.2814 21.574 20.034 21.289 20.6097 20.7146L24.2457 17.0873C25.3927 15.943 25.3927 14.0751 24.2457 12.9308L20.6097 9.29897C19.4627 8.1547 17.5904 8.1547 16.4434 9.29897L14.9463 10.7906L13.4512 9.29895C12.3042 8.15015 10.4318 8.15015 9.28478 9.29895L5.64883 12.9263C4.50182 14.0705 4.50182 15.9385 5.64883 17.0828L9.28478 20.7101ZM13.3518 12.3794L11.8599 10.891C11.7329 10.7643 11.5606 10.692 11.3793 10.692H11.3702C11.1889 10.692 11.0166 10.7643 10.8897 10.891L7.25372 14.5183C6.99077 14.7806 6.99077 15.2148 7.25372 15.4771L10.8942 19.1045C11.1526 19.3623 11.5969 19.3623 11.8553 19.1045L13.3433 17.6219L12.8029 17.0828C11.6559 15.9385 11.6559 14.0706 12.8029 12.9263L13.3518 12.3794ZM14.9514 16.0196L14.4078 15.4772C14.1448 15.2149 14.1448 14.7807 14.4078 14.5183L14.9518 13.9756L15.4958 14.5183C15.7588 14.7806 15.7588 15.2148 15.4958 15.4771L14.9514 16.0196ZM16.5521 17.6165L17.0871 17.0828C18.2341 15.9385 18.2341 14.0705 17.0871 12.9263L16.5454 12.3858L18.0437 10.891C18.1752 10.7599 18.352 10.692 18.5243 10.692C18.6966 10.692 18.8734 10.7599 19.0048 10.891L22.6408 14.5183C22.9037 14.7807 22.9037 15.2149 22.6408 15.4772L19.0048 19.1045C18.7419 19.3668 18.3067 19.3668 18.0437 19.1045L16.5521 17.6165Z" fill="url(#paint2_linear_175_1099)"/>
<defs>
<linearGradient id="paint0_linear_175_1099" x1="10.5" y1="-7.30134e-08" x2="18.6265" y2="14.8104" gradientUnits="userSpaceOnUse">
<stop offset="0.22" stop-color="#D736FF"/>
<stop offset="1" stop-color="#49A8FF"/>
</linearGradient>
<linearGradient id="paint1_linear_175_1099" x1="10.5121" y1="17.0149" x2="18.3576" y2="31.6168" gradientUnits="userSpaceOnUse">
<stop offset="0.22" stop-color="#D736FF"/>
<stop offset="1" stop-color="#49A8FF"/>
</linearGradient>
<linearGradient id="paint2_linear_175_1099" x1="16.566" y1="8.44076" x2="25.8804" y2="16.0088" gradientUnits="userSpaceOnUse">
<stop offset="0.22" stop-color="#D736FF"/>
<stop offset="1" stop-color="#49A8FF"/>
</linearGradient>
</defs>
</svg>
