<svg width="16" height="16" viewBox="0 0 16 16" fill="none" xmlns="http://www.w3.org/2000/svg">
<path d="M6.66658 11.9999C7.8499 11.9997 8.99912 11.6035 9.93125 10.8746L12.8619 13.8053L13.8046 12.8626L10.8739 9.93192C11.6033 8.99969 11.9996 7.85021 11.9999 6.66659C11.9999 3.72592 9.60725 1.33325 6.66658 1.33325C3.72592 1.33325 1.33325 3.72592 1.33325 6.66659C1.33325 9.60725 3.72592 11.9999 6.66658 11.9999ZM6.66658 2.66659C8.87258 2.66659 10.6666 4.46059 10.6666 6.66659C10.6666 8.87259 8.87258 10.6666 6.66658 10.6666C4.46059 10.6666 2.66659 8.87259 2.66659 6.66659C2.66659 4.46059 4.46059 2.66659 6.66658 2.66659Z" fill="white"/>
</svg>
